<?xml version="1.0" standalone="no"?>
<!DOCTYPE svg PUBLIC "-//W3C//DTD SVG 20010904//EN"
 "http://www.w3.org/TR/2001/REC-SVG-20010904/DTD/svg10.dtd">
<svg version="1.0" xmlns="http://www.w3.org/2000/svg"
 width="100.000000pt" height="100.000000pt" viewBox="0 0 100.000000 100.000000"
 preserveAspectRatio="xMidYMid meet">

<g transform="translate(0.000000,100.000000) scale(0.100000,-0.100000)"
fill="#000000" stroke="none">
<path d="M467 518 c-65 -183 -117 -336 -117 -340 0 -6 61 -30 66 -26 4 5 234
661 234 668 0 6 -52 30 -65 30 0 0 -54 -150 -118 -332z"/>
<path d="M103 615 c-48 -58 -88 -110 -88 -115 0 -16 175 -220 189 -220 12 0
46 31 46 42 0 3 -31 43 -70 89 -38 45 -70 85 -70 89 0 3 29 41 65 84 36 43 68
83 71 88 7 11 -24 48 -42 48 -7 0 -52 -47 -101 -105z"/>
<path d="M766 701 c-21 -23 -24 -17 59 -117 36 -43 65 -81 65 -84 0 -3 -31
-44 -70 -90 -38 -46 -70 -88 -70 -92 0 -3 12 -16 26 -27 l26 -20 94 112 c51
61 93 115 91 119 -6 20 -181 218 -191 218 -7 0 -21 -9 -30 -19z"/>
</g>
</svg>
